<?xml version="1.0" encoding="iso-8859-1"?>
<!-- Uploaded to: SVG Repo, www.svgrepo.com, Generator: SVG Repo Mixer Tools -->
<svg fill="#000000" height="800px" width="800px" version="1.1" id="Layer_1" xmlns="http://www.w3.org/2000/svg" xmlns:xlink="http://www.w3.org/1999/xlink" 
	 viewBox="0 0 512 512" xml:space="preserve">
<g>
	<g>
		<g>
			<path d="M323.658,263.766l75.435-75.435c8.333-8.333,8.331-21.843-0.004-30.173l-45.269-45.248
				c-8.333-8.329-21.839-8.326-30.169,0.006l-75.152,75.173c-0.079,0.077-0.165,0.142-0.243,0.22L6.251,430.334
				c-8.331,8.331-8.33,21.838,0.001,30.169L51.5,505.752c8.331,8.331,21.839,8.331,30.17,0l241.966-241.966
				C323.643,263.778,323.651,263.773,323.658,263.766z M338.744,158.166l15.09,15.083l-45.24,45.24l-15.077-15.084L338.744,158.166z
				 M66.585,460.497l-15.079-15.079l211.808-211.827l15.088,15.088L66.585,460.497z"/>
			<path d="M490.663,149.333h-42.667c-11.782,0-21.333,9.551-21.333,21.333c0,11.782,9.551,21.333,21.333,21.333h42.667
				c11.782,0,21.333-9.551,21.333-21.333C511.997,158.885,502.446,149.333,490.663,149.333z"/>
			<path d="M341.33,85.333c11.782,0,21.333-9.551,21.333-21.333V21.333C362.663,9.551,353.112,0,341.33,0
				c-11.782,0-21.333,9.551-21.333,21.333V64C319.997,75.782,329.548,85.333,341.33,85.333z"/>
			<path d="M341.33,277.333c-11.782,0-21.333,9.551-21.333,21.333V320c0,11.782,9.551,21.333,21.333,21.333
				c11.782,0,21.333-9.551,21.333-21.333v-21.333C362.663,286.885,353.112,277.333,341.33,277.333z"/>
			<path d="M250.815,110.321c8.331,8.331,21.839,8.331,30.17,0c8.331-8.331,8.331-21.839,0-30.17l-30.165-30.165
				c-8.331-8.331-21.839-8.331-30.17,0c-8.331,8.331-8.331,21.839,0,30.17L250.815,110.321z"/>
			<path d="M431.839,231.006c-8.331-8.331-21.839-8.331-30.17,0c-8.331,8.331-8.331,21.839,0,30.17l30.165,30.165
				c8.331,8.331,21.839,8.331,30.17,0s8.331-21.839,0-30.17L431.839,231.006z"/>
			<path d="M431.845,110.321l30.165-30.165c8.331-8.331,8.331-21.839,0-30.17c-8.331-8.331-21.839-8.331-30.17,0l-30.165,30.165
				c-8.331,8.331-8.331,21.839,0,30.17S423.514,118.652,431.845,110.321z"/>
		</g>
	</g>
</g>
</svg>